inDegrees=yes
name=ik_S53_A03_T02
DataType=double
version=3
OpenSimVersion=4.3-2021-08-27-4bc7ad9
endheader
time	pelvis_tilt	pelvis_list	pelvis_rotation	pelvis_tx	pelvis_ty	pelvis_tz	hip_flexion_r	hip_adduction_r	hip_rotation_r	knee_angle_r	knee_angle_r_beta	ankle_angle_r	subtalar_angle_r	mtp_angle_r	hip_flexion_l	hip_adduction_l	hip_rotation_l	knee_angle_l	knee_angle_l_beta	ankle_angle_l	subtalar_angle_l	mtp_angle_l	lumbar_extension	lumbar_bending	lumbar_rotation	arm_flex_r	arm_add_r	arm_rot_r	elbow_flex_r	pro_sup_r	wrist_flex_r	wrist_dev_r	arm_flex_l	arm_add_l	arm_rot_l	elbow_flex_l	pro_sup_l	wrist_flex_l	wrist_dev_l
21.55999999999963	0.7681454619274456	1.743331672662673	74.30836113992517	0	0.9399999999999999	0	7.370296271071561	0.5171930294279367	-16.31835862744262	15.76213935435318	0.2751012288916362	0	0	0	4.512935460058176	-9.806380198684362	-16.65522928136713	19.0544774198807	0.3325633682238323	0	0	0	0	0	0	41.97626475295302	-41.97626475295302	4.952844164478015	84.3253927073573	85.04715610799083	0	0	41.97626475295302	-41.97626475295302	4.952844164478015	84.3253927073573	85.04715610798192	0	0
21.57999999999963	0.7732600535460789	1.557931610741973	76.61095778021283	0	0.9399999999999999	0	7.384214305533818	0.2199587642301455	-17.41826009963446	15.71924254739226	0.2743525383715758	0	0	0	4.580022506126682	-9.28778524770877	-15.97671936755885	18.15259367990771	0.3168225274911032	0	0	0	0	0	0	41.97700960994356	-41.97700960994356	4.952867567544004	84.32572752718083	85.04713270492577	0	0	41.97700960994356	-41.97700960994356	4.952867567544004	84.32572752718083	85.04713270491686	0	0
21.59999999999963	0.7724805425351319	1.464941349932039	79.62255864430168	0	0.9399999999999999	0	7.300123595303354	-0.05848923803571342	-19.43816045831016	15.51569354126212	0.2707999380254426	0	0	0	5.14928247272353	-9.021487394199669	-13.10948590479198	17.96140675338429	0.3134856861365011	0	0	0	0	0	0	41.97853971405203	-41.97853971405203	4.952915466645972	84.32641280311653	85.04708480582585	0	0	41.97853971405203	-41.97853971405203	4.952915466645972	84.32641280311653	85.04708480581694	0	0
21.61999999999963	0.7221668013636237	1.375965013096854	81.17597670100722	0	0.9399999999999999	0	7.076680131018399	-0.3502820173552624	-20.00652451413725	15.05577566231165	0.2627728567489683	0	0	0	4.975384055545764	-8.065839867486831	-13.88611760300158	16.77346366413518	0.2927521679027912	0	0	0	0	0	0	41.98399758086141	-41.98399758086141	4.953065627635681	84.3285610624653	85.0469346448422	0	0	41.98399758086141	-41.98399758086141	4.953065627635681	84.3285610624653	85.04693464483331	0	0
21.63999999999963	0.6407318112421395	1.217565914807297	82.70146306671744	0	0.9399999999999999	0	7.218260752007401	-0.5786548143248649	-21.50455019730534	15.02306357180907	0.2622019230644878	0	0	0	5.44072370203633	-7.724707682912271	-12.33590439807352	16.45639278162597	0.2872182370408014	0	0	0	0	0	0	41.98430179173893	-41.98430179173893	4.953075069784666	84.3286961478457	85.04692520269361	0	0	41.98430179173893	-41.98430179173893	4.953075069784666	84.3286961478457	85.04692520268473	0	0
21.65999999999963	0.597569047645062	1.078723113082057	83.40009240410782	0	0.9399999999999999	0	6.901993151133949	-1.04319762589819	-19.38890572217432	14.9658609056815	0.2612035481996427	0	0	0	5.279295242959863	-7.160058222895578	-13.08106762773205	15.92563858556516	0.2779548288007647	0	0	0	0	0	0	41.98938777553827	-41.98938777553827	4.953215882659596	84.33071067144455	85.0467843898244	0	0	41.98938777553827	-41.98938777553827	4.953215882659596	84.33071067144455	85.04678438981554	0	0
21.67999999999963	0.5042201791984298	0.8419019137828494	84.75798269533045	0	0.9399999999999999	0	7.21278862147823	-1.711018039956461	-19.59663709970896	15.63847535513736	0.2729428849391364	0	0	0	5.341363779725664	-6.463593797226839	-13.31448119107183	15.54215246083608	0.2712617332885286	0	0	0	0	0	0	41.98993184275566	-41.98993184275566	4.95323291539296	84.33095435279631	85.04676735709177	0	0	41.98993184275566	-41.98993184275566	4.95323291539296	84.33095435279631	85.04676735708291	0	0
21.69999999999963	0.4848456737815329	0.7577817950904842	86.00928517630938	0	0.9399999999999999	0	7.442409875190036	-2.516367409542008	-19.7524283392756	16.99954036646998	0.2966979507205846	0	0	0	5.887425665833081	-6.099969326681252	-13.30673153866551	15.88509204216383	0.2772471581181087	0	0	0	0	0	0	41.99074488104461	-41.99074488104461	4.953258374911924	84.33131859321857	85.04674189757394	0	0	41.99074488104461	-41.99074488104461	4.953258374911924	84.33131859321857	85.04674189756508	0	0
21.71999999999963	0.4568380233628562	0.8926398648772429	87.17373573415567	0	0.9399999999999999	0	7.245365142964472	-2.891873985470892	-20.7844757231421	18.06285936532214	0.3152563682495647	0	0	0	6.048962750400971	-5.66079390186853	-12.23430638211513	15.51354255310375	0.2707623961999076	0	0	0	0	0	0	41.99143516091279	-41.99143516091279	4.953279923329846	84.33162687874008	85.04672034915697	0	0	41.99143516091279	-41.99143516091279	4.953279923329846	84.33162687874008	85.0467203491481	0	0
21.73999999999963	0.4195208093765191	1.241557639785306	88.22428637679202	0	0.9399999999999999	0	7.114686818319977	-3.750962837669931	-20.72032973872731	19.8880512788531	0.3471119766214555	0	0	0	5.417236524443122	-4.950753363052381	-11.60432888615245	14.69895864050038	0.2565452248912012	0	0	0	0	0	0	41.99224439316151	-41.99224439316151	4.953305240962263	84.33198908916738	85.04669503152567	0	0	41.99224439316151	-41.99224439316151	4.953305240962263	84.33198908916738	85.04669503151682	0	0
21.75999999999962	0.3599776403924169	1.471751581413649	88.73485313829589	0	0.9399999999999999	0	6.889336156677975	-4.048659921609453	-20.91500954267459	21.48719457947594	0.3750222924285335	0	0	0	4.671994377587121	-4.332686579772162	-11.96091561989206	13.85195732141962	0.2417622631045069	0	0	0	0	0	0	41.99301661530393	-41.99301661530393	4.95332939379505	84.33233463518907	85.04667087869389	0	0	41.99301661530393	-41.99301661530393	4.95332939379505	84.33233463518907	85.04667087868503	0	0
21.77999999999962	0.1472286886687705	1.93604213859254	89.68614979968709	0	0.9399999999999999	0	7.5569697034279	-6.045050168273559	-19.87205471511863	25.30090439837577	0.4415840854839723	0	0	0	3.994034751050423	-3.663722299805758	-11.7197150320366	13.30977059968722	0.2322993196496822	0	0	0	0	0	0	42.00589721128147	-42.00589721128147	4.953675615447967	84.33728779225555	85.04632465705502	0	0	42.00589721128147	-42.00589721128147	4.953675615447967	84.33728779225555	85.04632465704623	0	0
21.79999999999962	-0.09278640750636478	2.288797041023941	90.48053855541184	0	0.9399999999999999	0	8.092065953180548	-7.420288090422387	-19.55715663238956	28.55315915067064	0.4983466390251503	0	0	0	3.539639490502759	-3.059055878053131	-11.17017678069597	12.76792945234265	0.2228424076057358	0	0	0	0	0	0	42.00663308597768	-42.00663308597768	4.953698534634973	84.33761568858144	85.04630173786903	0	0	42.00663308597768	-42.00663308597768	4.953698534634973	84.33761568858144	85.04630173786022	0	0
21.81999999999962	-0.9047283501865009	2.751446477453484	91.70504719905637	0	0.9399999999999999	0	8.477634963763379	-9.39900412766101	-19.56109895613584	31.81403862804516	0.5552597224160477	0	0	0	3.133476997991323	-2.117801967119974	-10.03301126611785	12.56226510137672	0.219252887527403	0	0	0	0	0	0	42.00863879820135	-42.00863879820135	4.953760908172502	84.33850804341083	85.04623936433403	0	0	42.00863879820135	-42.00863879820135	4.953760908172502	84.33850804341083	85.04623936432523	0	0
21.83999999999962	-1.428469763245035	2.97622734079554	92.23499769487162	0	0.9399999999999999	0	9.121625898133601	-11.08076811015314	-18.9565890204624	34.77226844105568	0.6068905726837374	0	0	0	2.909933597294088	-1.550275255638363	-9.546743832897565	12.4816897612082	0.2178465825455478	0	0	0	0	0	0	42.01030703995762	-42.01030703995762	4.953812754757623	84.33924979294866	85.04618751775102	0	0	42.01030703995762	-42.01030703995762	4.953812754757623	84.33924979294866	85.04618751774223	0	0
21.85999999999962	-1.913843868824314	3.267766445349355	92.74088746106588	0	0.9399999999999999	0	10.53094989267695	-12.98043901199441	-17.71911550880776	38.38533785510237	0.6699505300619544	0	0	0	2.346019010646147	-0.7870501975200976	-8.897706415383555	11.93049750230164	0.2082264628161234	0	0	0	0	0	0	42.01190636228205	-42.01190636228205	4.953862448656494	84.33996074474032	85.04613782385418	0	0	42.01190636228205	-42.01190636228205	4.953862448656494	84.33996074474032	85.04613782384538	0	0
